<svg xmlns="http://www.w3.org/2000/svg" viewBox="0 0 25 25"><path d="M23.864,12.5v9.091a2.273,2.273,0,0,1-2.273,2.273H3.409a2.273,2.273,0,0,1-2.273-2.273V12.5A1.137,1.137,0,0,1,0,11.364V7.955A2.273,2.273,0,0,1,2.273,5.682h3.6A3.414,3.414,0,0,1,9.091,1.136a3.449,3.449,0,0,1,2.761,1.409V2.534l.648.875.648-.875v.011a3.449,3.449,0,0,1,2.761-1.409,3.414,3.414,0,0,1,3.216,4.546h3.6A2.273,2.273,0,0,1,25,7.955v3.409A1.137,1.137,0,0,1,23.864,12.5M3.409,21.591h7.955V12.5H3.409v9.091m18.182,0V12.5H13.636v9.091h7.955M9.091,3.409a1.137,1.137,0,1,0,1.136,1.136A1.136,1.136,0,0,0,9.091,3.409m6.818,0a1.137,1.137,0,1,0,1.136,1.136,1.136,1.136,0,0,0-1.136-1.136M2.273,7.955v2.272h9.091V7.955H2.273m11.363,0v2.272h9.091V7.955Z"/></svg>