<svg xmlns="http://www.w3.org/2000/svg" viewBox="0 0 25 25"><path d="M9.159,1.1A3.417,3.417,0,0,0,5.875,5.722h-3.6A2.273,2.273,0,0,0,0,7.994v2.273A1.136,1.136,0,0,0,1.136,11.4H11.364V7.994h2.272V11.4H23.864A1.136,1.136,0,0,0,25,10.267V7.994a2.273,2.273,0,0,0-2.273-2.272h-3.6a3.409,3.409,0,0,0-5.977-3.137l-.648.864-.648-.886A3.284,3.284,0,0,0,9.159,1.1M9.091,3.449A1.138,1.138,0,1,1,7.955,4.585,1.14,1.14,0,0,1,9.091,3.449m6.818,0a1.138,1.138,0,1,1-1.136,1.136,1.14,1.14,0,0,1,1.136-1.136M1.136,12.54v9.091A2.273,2.273,0,0,0,3.409,23.9H21.591a2.273,2.273,0,0,0,2.273-2.272V12.54H13.636v9.091H11.364V12.54Z"/></svg>