<svg xmlns="http://www.w3.org/2000/svg" viewBox="0 0 25 25"><path d="M24.92,18.1c-.155-.255-.566-.408-1.178-.713S20.1,15.6,19.542,15.4s-.977-.3-1.384.3-1.594,1.984-1.949,2.393-.716.458-1.332.152A16.814,16.814,0,0,1,9.93,15.222,18.59,18.59,0,0,1,6.507,11c-.357-.61-.035-.94.269-1.245.278-.275.617-.713.924-1.068a4.215,4.215,0,0,0,.609-1.02A1.109,1.109,0,0,0,8.259,6.6c-.15-.306-1.384-3.306-1.9-4.532S5.339.889,4.978.889A8.746,8.746,0,0,0,3.957,1a3.468,3.468,0,0,0-1.8.763A6.827,6.827,0,0,0,.009,6.848c0,3,2.2,5.906,2.51,6.311s4.253,6.772,10.507,9.215S19.28,24,20.408,23.9s3.638-1.475,4.152-2.9a5.072,5.072,0,0,0,.36-2.9Z"/></svg>